# xmcd
# 
# Track frame offsets:
#     150
#     19198
#     40805
#     61103
#     79575
#     82453
#     107693
#     129725
#     153740
#     176865
#     195193
#     219670
# 
# Disc length: 3371
# 
# Revision: 0
# Processed by: cddbd v1.5.2PL0 Copyright (c) Steve Scherf et al.
# Submitted via: fre:ac v1.0.17
# 
DISCID=a30d290c
DTITLE=A Few Good Men - Take A Dip
DYEAR=1995
DGENRE=R&B
TTITLE0=Tonite
TTITLE1=Walk You Through
TTITLE2=Let's Take A Dip
TTITLE3=All Of My Love
TTITLE4=Please Baby Don't Cry (Interlude)
TTITLE5=Have I Never
TTITLE6=A Thang For You
TTITLE7=Young Girl
TTITLE8=Don't Cry (Behind My Back)
TTITLE9=Sexy Day
TTITLE10=A Good Man
TTITLE11=1-900-G-MAN (How I Say I Love You)
EXTD=
EXTT0=
EXTT1=
EXTT2=
EXTT3=
EXTT4=
EXTT5=
EXTT6=
EXTT7=
EXTT8=
EXTT9=
EXTT10=
EXTT11=
PLAYORDER=
